<svg width="24" height="24" viewBox="0 0 24 24" fill="none" xmlns="http://www.w3.org/2000/svg">
<path d="M12.0345 4C7.95932 4 4.58919 7.03557 4.07585 10.9596C4.06134 11.0479 4.06481 11.1381 4.08604 11.225C4.10726 11.3118 4.14582 11.3936 4.19942 11.4653C4.25301 11.537 4.32054 11.5973 4.398 11.6425C4.47546 11.6877 4.56127 11.717 4.65031 11.7285C4.73935 11.74 4.82981 11.7336 4.9163 11.7096C5.0028 11.6856 5.08357 11.6446 5.15381 11.5889C5.22405 11.5332 5.28232 11.464 5.32515 11.3854C5.36799 11.3068 5.39452 11.2205 5.40316 11.1315C5.83119 7.85958 8.62555 5.33333 12.0345 5.33333C13.887 5.33333 15.55 6.0857 16.7605 7.29427L15.3822 8.66667L19.3995 9.33333L18.7299 5.33333L17.706 6.35286C16.2531 4.90503 14.2502 4 12.0345 4ZM19.3406 12.2786C19.1747 12.2763 19.0139 12.3353 18.8892 12.4443C18.7646 12.5532 18.685 12.7044 18.6658 12.8685C18.2378 16.1404 15.4435 18.6667 12.0345 18.6667C10.0111 18.6667 8.21728 17.7668 6.9894 16.3568L8.01725 15.3333L4 14.6667L4.66954 18.6667L6.04132 17.3008C7.51193 18.9485 9.6483 20 12.0345 20C16.1097 20 19.4798 16.9644 19.9932 13.0404C20.0067 12.9466 20.0001 12.851 19.9736 12.76C19.9472 12.669 19.9016 12.5847 19.8398 12.5126C19.7781 12.4405 19.7016 12.3824 19.6156 12.3421C19.5295 12.3017 19.4357 12.2801 19.3406 12.2786Z" fill="black"/>
</svg>
