<?xml version="1.0" standalone="no"?>
<!DOCTYPE svg PUBLIC "-//W3C//DTD SVG 20010904//EN"
 "http://www.w3.org/TR/2001/REC-SVG-20010904/DTD/svg10.dtd">
<svg version="1.0" xmlns="http://www.w3.org/2000/svg"
 width="25" height="25" viewBox="0 0 100.000000 100.000000"
 preserveAspectRatio="xMidYMid meet">

<g transform="translate(0.000000,100.000000) scale(0.100000,-0.100000)"
fill="#000000" stroke="none">
<path d="M393 956 c-254 -62 -413 -321 -348 -569 32 -123 123 -246 223 -300
118 -63 282 -75 404 -28 255 99 371 401 250 649 -93 192 -321 298 -529 248z
m268 -113 c342 -162 270 -662 -105 -723 -162 -26 -326 64 -399 218 -29 61 -32
76 -32 162 0 82 4 103 27 152 49 104 152 191 261 219 18 4 66 7 108 5 60 -2
89 -9 140 -33z"/>
<path d="M410 495 l0 -205 135 101 c74 56 135 104 135 108 -1 5 -224 175 -256
194 -12 7 -14 -27 -14 -198z"/>
</g>
</svg>
